/* XPM */
static const char *north[] = {
/* columns rows colors chars-per-pixel */
"64 64 21 1 ",
"  c #28200C",
". c #302410",
"X c #382C14",
"o c #403018",
"O c #483818",
"+ c #543C1C",
"@ c #5C4020",
"# c #6C4824",
"$ c #744C28",
"% c #80502C",
"& c #885830",
"* c #905C34",
"= c #9C6038",
"- c #A0643C",
"; c #A86840",
": c #B47044",
"> c #BC7848",
", c #C87C4C",
"< c #D08050",
"1 c #DC8854",
"2 c #F0945C",
/* pixels */
"ooooooooooooooooo;O%$#%##@@#=$##+o ooooooooooooooooooooooooooooo",
"o,,,,,,,,,,,,,% o;+&&$#@#O+@O@@@#o o;;;;;% o%%%%%%%%%%+ o,,,,,% ",
"o,*=:-===&-,,:@ o;Oo+@+++O@+O+++Oo o;-:==@ o%o@@o+oXoOo o,,;-*@ ",
"o,%*;*=-=-=,>:@ o=o@##@oo+@OO+++Oo o;>:*$@ o%oOOXoXXo+o o,>:>-@ ",
"o,-*>*=>:=*:;;@ o=+O#@+oO+@#@@OOOo o;:=$@@ o%XoOXXoXXoo o,>:,,@ ",
"o,:=,;=:;:,>*%@ o=+@@+@+OOO@@+o+Oo o;*&%$@ o%ooOoOOXoOo o,;;:>@ ",
"o,,><<,>::>=$$@ o=+O@@#@+ooOOO$#+o o;%&#@@ o%oooO+Oo++o o,>:>>@ ",
"o,=-,<,:,:*&#=@ o=+O#@#@#O+@@+%+@o o;%=%$@ o+oooooooooo o,:>--@ ",
"o,:;>:;>,&%&#*@ o=@@&$###+@+@+@@*o o;#&%#@ o            o,,>*:@ ",
"o,:=--;>:@$&#&@ o#oooooooooooooooo o;@$@o@ oooooooooooooo,,;-<@ ",
"o,%&**=>-$*:%*@ o                  o;@@oO@ o,,,,,,,,,,= o,,,12@ ",
"o,*:***:-%*=&-@ oooooooooooooooooooo;%O+#@ o,%%*-%%=-;% o,,;:;@ ",
"o,;:*;&=&%-==*@ o=======# o======# o;@o+@@ o,%&*%$$=->% o,::,:@ ",
"o,*=*=&=%#&%$%@ o=++##O@o o=%#$%Oo o;$@$#@ o,%%-&&%;;:% o,:<<;@ ",
"o,#$===*%&&%$%@ o=+++@@#o o=#@@$+o o;$@$$@ o,%&%%%%*&&% o,<<:$@ ",
"o,*##*=$$$$&&&@ o=OO+OO+o o=++O#+o o;$%$$@ o,;=****%$%% o,<<;%@ ",
"o,*+@&%@$$$&&&@ o=ooOOO+o o=##+@+o o;&&$$@ o,*&:;;%#@&% o,,>;%@ ",
"o,@O$&%$$@$&&$@ o=+O+++#o o=@#@+Oo o;$$#$@ o,-&:-=;-**% o,1**$@ ",
"o%@@@@@@@@@@@@@ o=$+%@O@o o=+@+oOo o;#@+$@ o=%%%%%%%%%% o%@@@@@ ",
"o               o=%$&@+#o o=O+@O+o o;@+O%@ o            o       ",
"ooooooooooooooooo=%*&###o o#oooooo o%@@@@@ ooooooooooooooooooooo",
"==============# o=$%#+OOo o        o       o=============$ o====",
"+#$$#OX.XoXX.Xo o=@$@OX+o oooooooooooooooooo=XXXO=@@o#*&+@ o=O$@",
"X+@oOo..XoXXXoo o=@#+@O@o o;;;;;;;;;;;;;;$ o=OOo+&$#O@+@o@ o=@+X",
"@@@O@@+XXXooooo o=@$@$@#o o;%&%&&$#$$&&&&@ o=oO#%*&@##XOo@ o=OXX",
"+@@oOoX.Oo@Xo#o o=$=$#@+o o;%&&*&$%%$$%$$@ o=@+@+O@@@+X+#@ o=o.X",
"ooooooooooooooo o#ooooooo o;#$$%&#$%&#@#@@ o=@+@OoO@+@Xoo@ o#ooo",
"                o         o;@$@##@#$&%$@$@ o=@oXXO#@+++@@@ o    ",
"ooooooooooooooooooooooooooo;$$@#$$$$%$O@%@ o=O.o@##@@#@+@@ ooooo",
",,,,,,,,,,,,,,,,,,,,,,,,= o%@@@@@@@@@@@@@@ o=Oo@#######@#@ o,,,,",
"$;=&>%%%;=:,:=<<<<<<<;&%% o                o=#++#%$$##$##@ o,&-=",
"&>=%=$&;;&=;;:<,<,<>:=%$% oooooooooooooooooo=%#%##$$#@#@@@ o,*=*",
"<<;==&:;=&=;;&>,,,<>:;&=% o;;;;;;$ o%%%%%+ o=&$#@#$$##$#@@ o,&;;",
">===&&==,;==%%<<<<<>::=>% o;OO@#&@ o%+OoOo o$@@@@@@@@@@@@@ o,%**",
",=>:;;&;:==%%=>,>==><:=<% o;@%*=*@ o%OOXoo o               o,=:;",
"=&=;==&=:<=%%,><>=&<,=><% o;---:;@ o%XXXOo ooooooooooooooooo,&--",
"%=;;=&;:>>:;=>><<;=><,<<% o;>&**%@ o%oXoOo o,,,,,,,,,,,,,% o,>:-",
"%%%%%%%%%%%%%%%%%%%%%%%%% o;;&**#@ o%oooOo o,:<-:>*:>&:;>& o=%%%",
"                          o;:=-;&@ o%oOOOo o,&*%-:*>>;1;;$ o    ",
"ooooooooooooooooooooooooooo;>:;*@@ o+O+ooo o,%;,>::;;:>-&# ooooo",
"%%%+ o::::::::% o#;;;;;;% o;&&*@o@ o       o               oo%%%",
"OXXo o:&;*#*-&@ o;*--**=@ o;%##@O@ oooooooooooooooooooooooooo%OX",
"XoXo o:;:=-::=@ o;&&$$&=@ o$@@@@@@ o;;;;;;;;;;;;;;% o=,<<;= o%OX",
"OOXo o:;-===:;@ o;=&*$==@ o        o;&%@$%%#&*;&#&@ o=>>>,% o%Oo",
"+Ooo o::==;:>-@ o;%%#$%@@ oooooooooo;*$@%&%&*&*$$=@ o=,:;<% o%oO",
"@oXo o::*$-=&*@ o;%*%*%O@ o,,,,,,= o;-%@%$$&$*==*=@ o=::>,% o%o+",
"@Xoo o:=$@$%%=@ o;#%+&#+@ o,;:<,<% o;*%#@#$&=:&$=*@ o;,<<>% o%+%",
"XXOo o:&%$$=;:@ o;$++=$$@ o,;&>,,% o;*%%#%&&;&##&%@ o;,<,>% o%Oo",
"..Oo o:&#@##&=@ o;##%*#%@ o,%%<<<% o;#%$#%%#;%&-*&@ o:>,<,% o%o.",
"Xo@o o:=%$+@&=@ o;$%$@$%@ o,%=>,>% o;&-%##@+$#+@@%@ o;>,<<% o%XO",
"o@@o o:&%###&>@ o;$#@#$%@ o,%,><>% o;*%@##@%$#+@@@@ o;,<<<% o%+@",
"oooo o:$@o+@*>@ o%@@@@@@@ o=%%%%%% o;$@+##@*#+++o+@ o:<<<,% o+oo",
"     o:@oO##&=@ o         o        o$@@@@@@@@@@@@@@ o=%%%%% o   ",
"oooooo:O+##%:;@ oooooooooooooooooooo                o       oooo",
",,,= o:o+@$*=*@ o;;;;;;;;;;;;;;;;% oooooooooooooooooooooooooo,,,",
"%*&% o:@$#&-*%@ o;@$@&**%=%$+@O+Oo o;;;;;;;;;;;;;;;;;;;;;;% o,%&",
"*;;% o:@$$&*&#@ o;#@#%*-#&%###oOOo o;*%&&%&&&$%$#$$@###$=-@ o,&&",
"==;% o:%$$%&$#@ o;#oO#%*&@##XOO++o o;&%**&***$%@#$%&%&&&;-@ o,%%",
":-:% o:&$$=-#$@ o;$@+@+O@@@+X++%@o o;**%%&**&$$@#$$&%&@%--@ o,%%",
"<>:% o:$#$$#+%@ o;@@+@++O@@+XO$&@o o;&%%$&&*&$$$$$$%%%#%%#@ o,&*",
">:=% o:@+$$##%@ o;+@oO@Oo++@XO*&#o o;&*&%=*&*$%%%$#$&&&=&%@ o,=:",
"=*&% o:+O%#$@@@ o;+O.oXXO#@@#@%#+o o;&&***&*&$$%$$$#$@@$%$@ o,>:",
"%%%% o%@@@@@@@@ o;@Oooo@#######@Oo o%@@@@@@@@@@@@@@@@@@@@@@ o=%%",
"                o;+#@O@#$##@$##@Oo o                            "
};
