/* XPM */
static const char *west[] = {
/* columns rows colors chars-per-pixel */
"64 64 15 1 ",
"  c black",
". c #044000",
"X c #045800",
"o c #047000",
"O c #047C00",
"+ c #048800",
"@ c #049800",
"# c #04A400",
"$ c #04B000",
"% c #04BC00",
"& c #04C800",
"* c #00D400",
"= c #00E000",
"- c #00EC00",
"; c #40FC40",
/* pixels */
".................&.+Oo+ooXXo$OooX. .............................",
".=============+ .&X@@OoXo.XX.XXXo. .&&&&&+ .++++++++++X .=====+ ",
".=#$*%$$$@%==*X .&..XXXXX.XX.XXX.. .&%*$$X .+.XX.X..... .==&%#X ",
".=+#&#$%$%$==*X .$.XooX..XX..XXX.. .&=*#OX .+........X. .==*=%X ",
".=%#=#$=*$#*&&X .$X.oXX..XXoXX.... .&*$OXX .+.......... .==*==X ",
".=*$=&$*&*==#+X .$XXXXXX...XXX.X.. .&#@+OX .+.......... .=&&*=X ",
".===--==**=$OOX .$X.XXoXX.....OoX. .&+@oXX .+....X..XX. .==*==X ",
".=$%=-=*=*#@o$X .$X.oXoXo.XXXX+XX. .&+$+OX .X.......... .=*=%%X ",
".=*&=*&==@+@o#X .$XX@OoooXXXXXXX#. .&o@+oX .            .===#*X ",
".=*$%%&=*XO@o@X .o................ .&XOX.X ..............==&%-X ",
".=+@##$=%O#*+#X .                  .&XX..X .==========$ .===-;X ",
".=#*###*%+#$@%X ....................&+.XoX .=++#%++$%&+ .==&*&X ",
".=&*#&@$@+%$$#X .$$$$$$$o .$$$$$$o .&X.XXX .=+@#+OO$%=+ .=**=*X ",
".=#$#$@$+o@+O+X .$XXoo.X. .$+oO+.. .&OXOoX .=++%@@+&&*+ .=*--&X ",
".=oO$$$#+@@+O+X .$XXXXXo. .$oXXOX. .&OXOOX .=+@++++#@@+ .=--*OX ",
".=#oo#$OOOO@@@X .$..X..X. .$XX.oX. .&O+OOX .=&$####+O++ .=--&+X ",
".=#XX@+XOOO@@@X .$.....X. .$ooXXX. .&@@OOX .=#@*&&+oX@+ .===&+X ",
".=X.O@+OOXO@@OX .$X.XXXo. .$XoXX.. .&OOoOX .=%@*%$&%##+ .=-##OX ",
".+XXXXXXXXXXXXX .$OX+X.X. .$XXX... .&oXXOX .$++++++++++ .+XXXXX ",
".               .$+O@XXo. .$.XX.X. .&XX.+X .            .       ",
".................$+#@ooo. .o...... .+XXXXX .....................",
"$$$$$$$$$$$$$$o .$O+oX... .        .       .$$$$$$$$$$$$$O .$$$$",
"XoOOo.......... .$XOX..X. ..................$....$XX.o#@XX .$.OX",
".XX............ .$XoXX.X. .&&&&&&&&&&&&&&O .$...X@Oo.XXX.X .$XX.",
"XXX.XXX........ .$XOXOXo. .&+@+@@OoOO@@@@X .$..o+#@Xoo...X .$...",
"XXX.......X..o. .$O$OoXX. .&+@@#@O++OO+OOX .$XXXX.XXXX.XoX .$...",
"............... .o....... .&oOO+@oO+@oXoXX .$XXX...XXX...X .o...",
"                .         .&XOXooXoO@+OXOX .$X....oXXXXXXX .    ",
"...........................&OOXoOOOO+O.X+X .$...XooXXoXXXX .....",
"========================$ .+XXXXXXXXXXXXXX .$..XoooooooXoX .====",
"O&$@=+++&$*=*$-------&@++ .                .$oXXo+OOooOooX .=@%$",
"@=$+$O@&&@$&&*-=-=-=*$+O+ ..................$+o+ooOOoXoXXX .=#$#",
"--&$$@*&$@$&&@====-=*&@$+ .&&&&&&O .+++++X .$@OoXoOOooOoXX .=@&&",
"=$$$@@$$=&$$++-----=**$=+ .&..Xo@X .+X.... .OXXXXXXXXXXXXX .=+##",
"=$=*&&@&*$$++$===$$=-*$-+ .&X+#$#X .+..... .               .=$*&",
"$@$&$$@$*-$++==-=$@-=$=-+ .&%%%*&X .+..... .................=@%%",
"+$&&$@&*==*&$==--&$=-=--+ .&=@##+X .+..... .=============+ .==*%",
"+++++++++++++++++++++++++ .&&@##oX .+..... .=*-%*=#*=@*&=@ .$+++",
"                          .&*$%&@X .+..... .=@#+%*#==&-&&O .    ",
"...........................&=*&#XX .X.X... .=+&==**&&*=%@o .....",
"+++X .********+ .o&&&&&&+ .&@@#X.X .       .               ..+++",
".... .*@&#o#%@X .&#%%##$X .&+ooX.X ..........................+..",
".... .*&*$%**$X .&@@OO@$X .OXXXXXX .&&&&&&&&&&&&&&+ .$=--&$ .+..",
".... .*&%$$$*&X .&$@#O$$X .        .&@+XO++o@#&@o@X .$====+ .+..",
"X... .**$$&*=%X .&++oO+XX ..........&#OX+@+@#@#OO$X .$=*&-+ .+..",
"X... .**#O%$@#X .&+#+#+.X .======$ .&%+X+OO@O#$$#$X .$**==+ .+.X",
"X... .*$OXO++$X .&o+X@oXX .=&*-=-+ .&#+oXoO@$*@O$#X .&=--=+ .+X+",
".... .*@+OO$&*X .&OXX$OOX .=&@===+ .&#++o+@@&@oo@+X .&=-==+ .+..",
".... .*@oXoo@$X .&oo+#o+X .=++---+ .&o+Oo++o&+@%#@X .*==-=+ .+..",
"..X. .*$+OXX@$X .&O+OXO+X .=+$===+ .&@%+ooXXOoXXX+X .&==--+ .+..",
".XX. .*@+ooo@=X .&OoXoO+X .=+==-=+ .&#+XooX+OoXXXXX .&=---+ .+XX",
".... .*OX.XX#=X .+XXXXXXX .$++++++ .&OXXooX#oXXX.XX .*---=+ .X..",
"     .*X..oo@$X .         .        .OXXXXXXXXXXXXXX .$+++++ .   ",
"......*.Xoo+*&X ....................                .       ....",
"===$ .*.XXO#$#X .&&&&&&&&&&&&&&&&+ ..........................===",
"+#@+ .*XOo@%#+X .&XOX@##+$+OXX.X.. .&&&&&&&&&&&&&&&&&&&&&&+ .=+@",
"#&&+ .*XOO@#@oX .&oXo+#%o@+ooo.... .&#+@@+@@@O+OoOOXoooO$%X .=@@",
"$$&+ .*+OO+@OoX .&o..o+#@Xoo...XX. .&@+##@###O+XoO+@+@@@&%X .=++",
"*%*+ .*@OO$%oOX .&OXXXX.XXXX.XX+X. .&##++@##@OOXoOO@+@X+%%X .=++",
"-=*+ .*OoOOoX+X .&XXXXXX.XXX..O@X. .&@++O@@#@OOOOOO+++o++oX .=@#",
"=*$+ .*XXOOoo+X .&XX..X..XXX..#@o. .&@#@+$#@#O+++OoO@@@$@+X .=$*",
"$#@+ .*X.+oOXXX .&X......oXXoX+oX. .&@@###@#@OO+OOOoOXXO+OX .==*",
"++++ .+XXXXXXXX .&X....XoooooooX.. .+XXXXXXXXXXXXXXXXXXXXXX .$++",
"                .&XoX.XoOooXOooX.. .                            "
};
